<svg width="47" height="47" viewBox="0 0 47 47" fill="none" xmlns="http://www.w3.org/2000/svg">
<path d="M41.497 15.745L35.2695 9.51749C32.9195 7.16749 29.6882 7.28499 28.102 9.81124L24.6357 15.2946L35.7395 26.3983L41.2228 22.9321C43.5924 21.4242 43.7295 17.9579 41.497 15.745Z" stroke="#219EBC" stroke-width="1.5" stroke-linecap="round" stroke-linejoin="round"/>
<path d="M35.7394 26.3788L36.2094 34.4471C36.6598 38.9513 35.0931 40.518 30.824 41.0271L13.7473 43.0442C10.144 43.4555 7.55895 40.8705 7.98979 37.2867L9.90895 21.0717M24.6356 15.2946L21.2085 15.0792M10.3398 40.6942L16.5673 34.4471" stroke="#219EBC" stroke-width="1.5" stroke-linecap="round" stroke-linejoin="round"/>
<path d="M21.5415 12.7292C21.5415 13.5321 21.424 14.335 21.2086 15.0792C20.754 16.7353 19.8207 18.2203 18.5257 19.3483C16.9786 20.7192 14.9615 21.5417 12.729 21.5417C11.7303 21.5417 10.7903 21.385 9.909 21.0717C7.9334 20.408 6.25971 19.0607 5.18942 17.2725C4.36004 15.9019 3.91996 14.3311 3.9165 12.7292C3.9165 9.94832 5.18942 7.46124 7.22609 5.8554C8.52047 4.81467 10.0829 4.16145 11.7329 3.97124C13.3828 3.78103 15.053 4.0616 16.5502 4.78051C18.0474 5.49943 19.3107 6.62735 20.1939 8.03392C21.0771 9.44048 21.5443 11.0683 21.5415 12.7292Z" stroke="#219EBC" stroke-width="1.5" stroke-miterlimit="10" stroke-linecap="round" stroke-linejoin="round"/>
<path d="M12.7682 16.0192V9.43921M15.9799 12.7292H9.3999" stroke="#219EBC" stroke-width="1.5" stroke-miterlimit="10" stroke-linecap="round" stroke-linejoin="round"/>
</svg>
