<svg width="23" height="18" viewBox="0 0 23 18" fill="none" xmlns="http://www.w3.org/2000/svg">
<path d="M18.4627 5.84911L18.5884 6.16341H18.9269H21.5016C21.5061 6.16341 21.5078 6.16425 21.5086 6.16465C21.5101 6.16539 21.5123 6.16697 21.5145 6.16972C21.5166 6.17248 21.5176 6.17502 21.518 6.1766C21.5182 6.17744 21.5186 6.17921 21.5175 6.18349L21.2595 7.21545L21.2594 7.21587C21.2577 7.22249 21.2516 7.22762 21.244 7.22762H20.3809H19.0491L20.0518 8.10408C20.5287 8.5209 20.83 9.12033 20.83 9.79183V11.856C20.83 12.4184 20.616 12.9294 20.2656 13.33L20.1419 13.4714V13.6592V15.9845C20.1419 16.4682 19.7495 16.8606 19.2658 16.8606H17.8897C17.4059 16.8606 17.0135 16.4682 17.0135 15.9845V14.6083V14.1083H16.5135H5.5044H5.0044V14.6083V15.9845C5.0044 16.4682 4.61201 16.8606 4.12826 16.8606H2.75212C2.26838 16.8606 1.87598 16.4682 1.87598 15.9845V13.6592V13.4715L1.75248 13.3302C1.40187 12.929 1.18791 12.4179 1.18791 11.856V9.79183C1.18791 9.12036 1.48918 8.52099 1.96636 8.10421L2.96999 7.22762H1.63745H0.774352C0.766752 7.22762 0.760607 7.22249 0.75896 7.21587L0.758853 7.21545L0.500827 6.18334L0.500713 6.18289C0.499647 6.17864 0.500046 6.17696 0.50021 6.17623C0.500539 6.17476 0.501472 6.17231 0.503573 6.16961C0.505675 6.16692 0.507869 6.16537 0.509318 6.16464C0.510099 6.16425 0.511782 6.16341 0.516326 6.16341H3.09057H3.42908L3.55481 5.84911L4.27039 4.06015C4.93025 2.41069 6.50182 1.34692 8.27818 1.34692H13.7397C15.5165 1.34692 17.0876 2.41068 17.7471 4.06005L17.7471 4.06013L18.4627 5.84911ZM5.89726 4.71091L5.89723 4.71097L5.04016 6.85387L4.76591 7.53955H5.5044H16.5135H17.252L16.9778 6.85387L16.1207 4.71097L16.1207 4.71091C15.7312 3.73755 14.7883 3.0992 13.7397 3.0992H8.27818C7.22958 3.0992 6.28671 3.73755 5.89726 4.71091ZM2.25212 10.4756C2.25212 11.0012 2.43011 11.4779 2.77756 11.8243C3.12487 12.1705 3.60227 12.3474 4.12826 12.3474C4.20764 12.3474 4.29887 12.3492 4.39789 12.3512C4.74525 12.358 5.18846 12.3668 5.55195 12.3064C5.79258 12.2664 6.07146 12.1874 6.2978 12.0069C6.54983 11.8059 6.69247 11.5142 6.69247 11.1615C6.69247 10.8388 6.57445 10.5214 6.42281 10.2493C6.26773 9.97108 6.05695 9.7031 5.823 9.46987C5.58903 9.23664 5.32029 9.02661 5.04137 8.87214C4.76856 8.72105 4.45092 8.60376 4.12826 8.60376C3.60227 8.60376 3.12487 8.78069 2.77756 9.12691C2.43011 9.47328 2.25212 9.94995 2.25212 10.4756ZM15.3254 11.1615C15.3254 11.5142 15.4681 11.8059 15.7201 12.0069C15.9465 12.1874 16.2253 12.2664 16.466 12.3064C16.8295 12.3668 17.2727 12.358 17.62 12.3512C17.7191 12.3492 17.8103 12.3474 17.8897 12.3474C18.4157 12.3474 18.8931 12.1705 19.2404 11.8243C19.5878 11.4779 19.7658 11.0012 19.7658 10.4756C19.7658 9.94995 19.5878 9.47328 19.2404 9.12691C18.8931 8.78069 18.4157 8.60376 17.8897 8.60376C17.567 8.60376 17.2494 8.72105 16.9766 8.87214C16.6976 9.02661 16.4289 9.23664 16.1949 9.46987C15.961 9.7031 15.7502 9.97108 15.5951 10.2493C15.4435 10.5214 15.3254 10.8388 15.3254 11.1615Z" fill="#219EBC" stroke="#023047"/>
</svg>
