<svg width="12" height="16" viewBox="0 0 12 16" fill="none" xmlns="http://www.w3.org/2000/svg">
<path d="M9.16667 1.7812V0.578313C9.16667 0.262169 8.94 0 8.66667 0C8.39333 0 8.16667 0.262169 8.16667 0.578313V1.73494H3.83333V0.578313C3.83333 0.262169 3.60667 0 3.33333 0C3.06 0 2.83333 0.262169 2.83333 0.578313V1.7812C1.03333 1.97398 0.16 3.21542 0.0266666 5.05831C0.0133333 5.28193 0.173333 5.46699 0.36 5.46699H11.64C11.8333 5.46699 11.9933 5.27422 11.9733 5.05831C11.84 3.21542 10.9667 1.97398 9.16667 1.7812ZM11.3333 6.62361H0.666667C0.3 6.62361 0 6.9706 0 7.3947V12.1446C0 14.4578 1 16 3.33333 16H8.66667C11 16 12 14.4578 12 12.1446V7.3947C12 6.9706 11.7 6.62361 11.3333 6.62361ZM4.14 13.0776C4.10667 13.1084 4.07333 13.147 4.04 13.1701C4 13.201 3.96 13.2241 3.92 13.2395C3.88 13.2627 3.84 13.2781 3.8 13.2858C3.75333 13.2935 3.71333 13.3012 3.66667 13.3012C3.58 13.3012 3.49333 13.2781 3.41333 13.2395C3.32667 13.201 3.26 13.147 3.19333 13.0776C3.07333 12.9311 3 12.7306 3 12.5301C3 12.3296 3.07333 12.1292 3.19333 11.9827C3.26 11.9133 3.32667 11.8593 3.41333 11.8207C3.53333 11.759 3.66667 11.7436 3.8 11.7745C3.84 11.7822 3.88 11.7976 3.92 11.8207C3.96 11.8361 4 11.8593 4.04 11.8901L4.14 11.9827C4.26 12.1292 4.33333 12.3296 4.33333 12.5301C4.33333 12.7306 4.26 12.9311 4.14 13.0776ZM4.14 10.3788C4.01333 10.5176 3.84 10.6024 3.66667 10.6024C3.49333 10.6024 3.32 10.5176 3.19333 10.3788C3.07333 10.2323 3 10.0318 3 9.83132C3 9.63084 3.07333 9.43036 3.19333 9.28386C3.38 9.06795 3.67333 8.99855 3.92 9.12193C4.00667 9.16048 4.08 9.21446 4.14 9.28386C4.26 9.43036 4.33333 9.63084 4.33333 9.83132C4.33333 10.0318 4.26 10.2323 4.14 10.3788ZM6.47333 13.0776C6.34667 13.2164 6.17333 13.3012 6 13.3012C5.82667 13.3012 5.65333 13.2164 5.52667 13.0776C5.40667 12.9311 5.33333 12.7306 5.33333 12.5301C5.33333 12.3296 5.40667 12.1292 5.52667 11.9827C5.77333 11.6973 6.22667 11.6973 6.47333 11.9827C6.59333 12.1292 6.66667 12.3296 6.66667 12.5301C6.66667 12.7306 6.59333 12.9311 6.47333 13.0776ZM6.47333 10.3788L6.37333 10.4713C6.33333 10.5022 6.29333 10.5253 6.25333 10.5407C6.21333 10.5639 6.17333 10.5793 6.13333 10.587C6.08667 10.5947 6.04667 10.6024 6 10.6024C5.82667 10.6024 5.65333 10.5176 5.52667 10.3788C5.40667 10.2323 5.33333 10.0318 5.33333 9.83132C5.33333 9.63084 5.40667 9.43036 5.52667 9.28386C5.58667 9.21446 5.66 9.16048 5.74667 9.12193C5.99333 8.99855 6.28667 9.06795 6.47333 9.28386C6.59333 9.43036 6.66667 9.63084 6.66667 9.83132C6.66667 10.0318 6.59333 10.2323 6.47333 10.3788ZM8.80667 13.0776C8.68 13.2164 8.50667 13.3012 8.33333 13.3012C8.16 13.3012 7.98667 13.2164 7.86 13.0776C7.74 12.9311 7.66667 12.7306 7.66667 12.5301C7.66667 12.3296 7.74 12.1292 7.86 11.9827C8.10667 11.6973 8.56 11.6973 8.80667 11.9827C8.92667 12.1292 9 12.3296 9 12.5301C9 12.7306 8.92667 12.9311 8.80667 13.0776ZM8.80667 10.3788L8.70667 10.4713C8.66667 10.5022 8.62667 10.5253 8.58667 10.5407C8.54667 10.5639 8.50667 10.5793 8.46667 10.587C8.42 10.5947 8.37333 10.6024 8.33333 10.6024C8.16 10.6024 7.98667 10.5176 7.86 10.3788C7.74 10.2323 7.66667 10.0318 7.66667 9.83132C7.66667 9.63084 7.74 9.43036 7.86 9.28386C7.92667 9.21446 7.99333 9.16048 8.08 9.12193C8.2 9.06024 8.33333 9.04482 8.46667 9.07566C8.50667 9.08337 8.54667 9.09879 8.58667 9.12193C8.62667 9.13735 8.66667 9.16048 8.70667 9.19133L8.80667 9.28386C8.92667 9.43036 9 9.63084 9 9.83132C9 10.0318 8.92667 10.2323 8.80667 10.3788Z" fill="#219EBC"/>
</svg>
