<svg width="40" height="40" viewBox="0 0 40 40" fill="none" xmlns="http://www.w3.org/2000/svg">
<path d="M33.9198 22.5H33.226H31.638H8.362H6.774H6.08035L6.29964 21.8419L8.50964 15.2099L8.50989 15.2092C8.85201 14.1878 9.80659 13.5 10.882 13.5H29.116C30.1928 13.5 31.1481 14.1873 31.4883 15.2098L33.9198 22.5ZM33.9198 22.5L33.7003 21.8418L31.4885 15.2102L33.9198 22.5ZM37.0697 22.4681L37.1413 22.6831L37.3503 22.771C38.6141 23.302 39.5 24.5471 39.5 26V32C39.5 33.2887 38.7966 34.4036 37.7484 35.0139L37.5 35.1585V35.446V38C37.5 38.8299 36.8299 39.5 36 39.5H34C33.1701 39.5 32.5 38.8299 32.5 38V36V35.5H32H8H7.5V36V38C7.5 38.8299 6.82986 39.5 6 39.5H4C3.17014 39.5 2.5 38.8299 2.5 38V37.794V35.446V35.1585L2.25157 35.0139C1.20349 34.4037 0.5 33.2869 0.5 32V26C0.5 24.5471 1.38595 23.302 2.64971 22.7709L2.85867 22.6831L2.93034 22.4681L5.66634 14.2601C6.41631 12.0102 8.5113 10.5 10.882 10.5H29.118C31.4887 10.5 33.5837 12.0102 34.3337 14.2601L37.0697 22.4681ZM13.446 5.5H13.1588L13.0141 5.74811C12.4036 6.79483 11.2865 7.5 10 7.5C9.05366 7.5 8.19893 7.11842 7.57014 6.5H10H10.5V6V2V1.5H10H7.57014C8.19893 0.881579 9.05366 0.5 10 0.5C11.2865 0.5 12.4036 1.20517 13.0141 2.25189L13.1588 2.5H13.446H26.554H26.8412L26.9859 2.25189C27.5964 1.20517 28.7135 0.5 30 0.5C30.9463 0.5 31.8011 0.881579 32.4299 1.5H30H29.5V2V6V6.5H30H32.4299C31.8011 7.11842 30.9463 7.5 30 7.5C28.7134 7.5 27.5966 6.79478 26.9882 5.74865L26.8436 5.5H26.556H13.446ZM3.5 29C3.5 30.9321 5.06786 32.5 7 32.5C8.93214 32.5 10.5 30.9321 10.5 29C10.5 27.0679 8.93214 25.5 7 25.5C5.06786 25.5 3.5 27.0679 3.5 29ZM29.5 29C29.5 30.9321 31.0679 32.5 33 32.5C34.9321 32.5 36.5 30.9321 36.5 29C36.5 27.0679 34.9321 25.5 33 25.5C31.0679 25.5 29.5 27.0679 29.5 29Z" stroke="#219EBC"/>
</svg>
