<svg width="34" height="34" viewBox="0 0 34 34" fill="none" xmlns="http://www.w3.org/2000/svg">
<path d="M2.13019 15.8289V23.0503C2.13019 30.2717 5.08671 33.1667 12.4616 33.1667H21.3147C28.6896 33.1667 31.6461 30.2717 31.6461 23.0503V15.8289" stroke="#219EBC" stroke-width="1.5" stroke-linecap="round" stroke-linejoin="round"/>
<path d="M16.8964 17.0833C19.9022 17.0833 22.1195 14.6869 21.8239 11.7437L20.7398 1H13.0693L11.9688 11.7437C11.6732 14.6869 13.8906 17.0833 16.8964 17.0833Z" stroke="#219EBC" stroke-width="1.5" stroke-linecap="round" stroke-linejoin="round"/>
<path d="M27.2606 17.0833C30.5785 17.0833 33.0094 14.4457 32.6809 11.2129L32.221 6.79C31.6297 2.60833 29.9872 1 25.6838 1H20.6742L21.8239 12.2744C22.1031 14.9282 24.5505 17.0833 27.2606 17.0833ZM6.45002 17.0833C9.16016 17.0833 11.6075 14.9282 11.8703 12.2744L12.2317 8.71999L13.0201 1H8.0104C3.70703 1 2.06452 2.60833 1.47322 6.79L1.02974 11.2129C0.701236 14.4457 3.13215 17.0833 6.45002 17.0833ZM16.8964 25.125C14.1534 25.125 12.7901 26.4599 12.7901 29.1458V33.1666H21.0027V29.1458C21.0027 26.4599 19.6394 25.125 16.8964 25.125Z" stroke="#219EBC" stroke-width="1.5" stroke-linecap="round" stroke-linejoin="round"/>
</svg>
