<svg width="64" height="64" viewBox="0 0 64 64" fill="none" xmlns="http://www.w3.org/2000/svg">
<path d="M59 11H5C3.346 11 2 12.346 2 14V50C2 51.654 3.346 53 5 53H59C60.654 53 62 51.654 62 50V14C62 12.346 60.654 11 59 11Z" fill="#4D4D4D"/>
<path d="M17 51C11.76 51 6.721 50.317 2 49.072V50C2 51.654 3.346 53 5 53H59C60.654 53 62 51.654 62 50V25.915C55.209 40.563 37.626 51 17 51Z" fill="#3E3E3E"/>
<path d="M2 21H62V31H2V21Z" fill="#3EBBDD"/>
<path d="M6 15H8V17H6V15ZM10 15H12V17H10V15ZM14 15H16V17H14V15ZM18 15H20V17H18V15ZM57 43H49C48.7348 43 48.4804 43.1054 48.2929 43.2929C48.1054 43.4804 48 43.7348 48 44V48C48 48.2652 48.1054 48.5196 48.2929 48.7071C48.4804 48.8946 48.7348 49 49 49H57C57.2652 49 57.5196 48.8946 57.7071 48.7071C57.8946 48.5196 58 48.2652 58 48V44C58 43.7348 57.8946 43.4804 57.7071 43.2929C57.5196 43.1054 57.2652 43 57 43ZM45 43H37C36.7348 43 36.4804 43.1054 36.2929 43.2929C36.1054 43.4804 36 43.7348 36 44V48C36 48.2652 36.1054 48.5196 36.2929 48.7071C36.4804 48.8946 36.7348 49 37 49H45C45.2652 49 45.5196 48.8946 45.7071 48.7071C45.8946 48.5196 46 48.2652 46 48V44C46 43.7348 45.8946 43.4804 45.7071 43.2929C45.5196 43.1054 45.2652 43 45 43ZM7 45H22V47H7V45Z" fill="white"/>
</svg>
