<svg width="38" height="42" viewBox="0 0 38 42" fill="none" xmlns="http://www.w3.org/2000/svg">
<path d="M31 34.72H29.48C27.88 34.72 26.36 35.34 25.24 36.46L21.82 39.84C20.26 41.38 17.72 41.38 16.16 39.84L12.74 36.46C11.62 35.34 10.08 34.72 8.5 34.72H7C3.68 34.72 1 32.06 1 28.78V6.94C1 3.66 3.68 1 7 1H31C34.32 1 37 3.66 37 6.94V28.76C37 32.04 34.32 34.72 31 34.72Z" stroke="#219EBC" stroke-width="1.5" stroke-miterlimit="10" stroke-linecap="round" stroke-linejoin="round"/>
<path d="M19.14 14.9H18.84C17.8293 14.8662 16.8714 14.4401 16.1695 13.7121C15.4676 12.984 15.0768 12.0113 15.08 11C15.08 8.83998 16.82 7.09998 18.98 7.09998C21.14 7.09998 22.88 8.85998 22.88 11C22.9 13.12 21.24 14.84 19.14 14.9ZM13.5 20.92C10.84 22.7 10.84 25.6 13.5 27.38C16.52 29.4 21.48 29.4 24.5 27.38C27.16 25.6 27.16 22.7 24.5 20.92C21.48 18.92 16.54 18.92 13.5 20.92Z" stroke="#219EBC" stroke-width="1.5" stroke-linecap="round" stroke-linejoin="round"/>
</svg>
