<svg width="36" height="36" viewBox="0 0 36 36" fill="none" xmlns="http://www.w3.org/2000/svg">
<path d="M14.8545 16.6312H10.3274C9.25113 16.6312 8.37988 17.5025 8.37988 18.5787V27.3254H14.8545V16.6312Z" stroke="#219EBC" stroke-width="1.5" stroke-miterlimit="10" stroke-linecap="round" stroke-linejoin="round"/>
<path d="M19.3835 8.8584H16.7869C15.7106 8.8584 14.8394 9.72965 14.8394 10.8059V27.3084H21.3139V10.8059C21.3139 9.72965 20.4598 8.8584 19.3835 8.8584ZM25.853 19.5355H21.3259V27.3084H27.8005V21.483C27.7834 20.4067 26.9121 19.5355 25.853 19.5355Z" stroke="#219EBC" stroke-width="1.5" stroke-miterlimit="10" stroke-linecap="round" stroke-linejoin="round"/>
<path d="M12.9583 35.1667H23.2083C31.75 35.1667 35.1667 31.75 35.1667 23.2083V12.9583C35.1667 4.41667 31.75 1 23.2083 1H12.9583C4.41667 1 1 4.41667 1 12.9583V23.2083C1 31.75 4.41667 35.1667 12.9583 35.1667Z" stroke="#219EBC" stroke-width="1.5" stroke-linecap="round" stroke-linejoin="round"/>
</svg>
