<svg width="42" height="35" viewBox="0 0 42 35" fill="none" xmlns="http://www.w3.org/2000/svg">
<path d="M39.6269 1.36726C40.1756 1.73655 40.6253 2.23489 40.9365 2.81853C41.2477 3.40217 41.4109 4.05328 41.4118 4.7147V30.3088C41.4118 31.3806 40.986 32.4085 40.2281 33.1664C39.4703 33.9242 38.4424 34.35 37.3706 34.35H5.04118C3.96939 34.35 2.9415 33.9242 2.18363 33.1664C1.42577 32.4085 1 31.3806 1 30.3088V4.7147C1 3.64291 1.42577 2.61502 2.18363 1.85716C2.9415 1.09929 3.96939 0.673523 5.04118 0.673523H25.8532" stroke="#219EBC" stroke-linecap="round" stroke-linejoin="round"/>
<path d="M27.9411 1.34706C28.3131 1.34706 28.6146 1.04551 28.6146 0.673529C28.6146 0.301549 28.3131 0 27.9411 0C27.5691 0 27.2676 0.301549 27.2676 0.673529C27.2676 1.04551 27.5691 1.34706 27.9411 1.34706Z" fill="#219EBC"/>
<path d="M9.41943 19.8691H32.993" stroke="#219EBC" stroke-linecap="round" stroke-linejoin="round"/>
<path d="M9.41943 24.5838H26.2577" stroke="#219EBC" stroke-linecap="round" stroke-linejoin="round"/>
<path d="M9.41943 15.1544H32.993" stroke="#219EBC" stroke-linecap="round" stroke-linejoin="round"/>
<path d="M9.41943 10.4397H32.993" stroke="#219EBC" stroke-linecap="round" stroke-linejoin="round"/>
</svg>
