<svg width="50" height="53" viewBox="0 0 50 53" fill="none" xmlns="http://www.w3.org/2000/svg">
<g clip-path="url(#clip0_1113_456)">
<path d="M25 46.375C35.3553 46.375 43.75 37.4767 43.75 26.5C43.75 15.5233 35.3553 6.625 25 6.625C14.6447 6.625 6.25 15.5233 6.25 26.5C6.25 37.4767 14.6447 46.375 25 46.375Z" fill="#EAEAEA"/>
<path fill-rule="evenodd" clip-rule="evenodd" d="M25.0003 4.96826C13.7897 4.96826 4.6875 14.6166 4.6875 26.4999C4.6875 38.3831 13.7897 48.0314 25.0003 48.0314C36.2109 48.0314 45.3131 38.3831 45.3131 26.4999C45.3131 14.6166 36.2109 4.96826 25.0003 4.96826ZM25.0003 8.28144C34.4859 8.28144 42.1875 16.4451 42.1875 26.4999C42.1875 36.5546 34.4859 44.7183 25.0003 44.7183C15.5147 44.7183 7.81311 36.5546 7.81311 26.4999C7.81311 16.4451 15.5147 8.28144 25.0003 8.28144Z" fill="#3FC1C9"/>
<path fill-rule="evenodd" clip-rule="evenodd" d="M11.3947 14.4206L36.3945 40.9204C37.0041 41.5666 37.9945 41.5666 38.6041 40.9204C39.2137 40.2742 39.2137 39.2244 38.6041 38.5782L13.6043 12.0784C12.9947 11.4322 12.0043 11.4322 11.3947 12.0784C10.7851 12.7246 10.7851 13.7744 11.3947 14.4206Z" fill="#3FC1C9"/>
</g>
<defs>
<clipPath id="clip0_1113_456">
<rect width="50" height="53" fill="white"/>
</clipPath>
</defs>
</svg>
