<svg width="28" height="28" viewBox="0 0 28 28" fill="none" xmlns="http://www.w3.org/2000/svg">
<circle cx="14" cy="14" r="14" fill="#219EBC"/>
<path d="M18.5333 19.5959H8.70496C8.51877 19.5959 8.3402 19.6699 8.20855 19.8016C8.07689 19.9332 8.00293 20.1118 8.00293 20.298C8.00293 20.4842 8.07689 20.6627 8.20855 20.7944C8.3402 20.926 8.51877 21 8.70496 21H18.5333C18.7195 21 18.8981 20.926 19.0297 20.7944C19.1614 20.6627 19.2353 20.4842 19.2353 20.298C19.2353 20.1118 19.1614 19.9332 19.0297 19.8016C18.8981 19.6699 18.7195 19.5959 18.5333 19.5959Z" fill="white"/>
<path d="M8.70498 18.1919H8.76816L11.6956 17.9251C12.0163 17.8932 12.3162 17.7519 12.5451 17.5249L18.8633 11.2067C19.1085 10.9476 19.2411 10.6019 19.2318 10.2453C19.2226 9.8887 19.0724 9.55028 18.8142 9.30422L16.8906 7.38067C16.6396 7.14485 16.3106 7.00955 15.9663 7.00049C15.622 6.99143 15.2863 7.10924 15.0232 7.33153L8.70498 13.6498C8.47806 13.8786 8.33677 14.1785 8.30482 14.4992L8.00295 17.4267C7.99349 17.5295 8.00684 17.6331 8.04203 17.7302C8.07722 17.8273 8.13339 17.9154 8.20654 17.9883C8.27214 18.0533 8.34993 18.1048 8.43546 18.1398C8.521 18.1747 8.61259 18.1924 8.70498 18.1919ZM15.9148 8.3635L17.8313 10.28L16.4273 11.649L14.5458 9.76756L15.9148 8.3635ZM9.66675 14.6186L13.6192 10.6942L15.5146 12.5897L11.5833 16.521L9.47721 16.7176L9.66675 14.6186Z" fill="white"/>
</svg>
