<svg width="19" height="24" viewBox="0 0 19 24" fill="none" xmlns="http://www.w3.org/2000/svg">
<path d="M17.8128 21.301H1.19208C0.877214 21.301 0.575247 21.4261 0.352604 21.6487C0.129962 21.8714 0.00488281 22.1734 0.00488281 22.4882C0.00488281 22.8031 0.129962 23.1051 0.352604 23.3277C0.575247 23.5503 0.877214 23.6754 1.19208 23.6754H17.8128C18.1277 23.6754 18.4296 23.5503 18.6523 23.3277C18.8749 23.1051 19 22.8031 19 22.4882C19 22.1734 18.8749 21.8714 18.6523 21.6487C18.4296 21.4261 18.1277 21.301 17.8128 21.301Z" fill="#636363"/>
<path d="M1.19218 18.9265H1.29903L6.24964 18.4754C6.79194 18.4214 7.29916 18.1825 7.68614 17.7987L18.3709 7.11396C18.7856 6.67584 19.0097 6.0912 18.9941 5.48814C18.9786 4.88507 18.7246 4.31278 18.2878 3.89666L15.0349 0.643746C14.6103 0.244962 14.054 0.0161453 13.4717 0.000822438C12.8895 -0.0145004 12.3219 0.18474 11.8769 0.560642L1.19218 11.2454C0.808443 11.6324 0.569506 12.1396 0.515483 12.6819L0.00498972 17.6325C-0.011003 17.8064 0.0115601 17.9817 0.0710704 18.1458C0.130581 18.31 0.225573 18.459 0.349276 18.5823C0.460208 18.6923 0.591768 18.7793 0.736413 18.8384C0.881058 18.8975 1.03594 18.9275 1.19218 18.9265ZM13.3847 2.30582L16.6257 5.54686L14.2513 7.86189L11.0696 4.68021L13.3847 2.30582ZM2.81864 12.8837L9.50255 6.24731L12.708 9.45273L6.05968 16.101L2.4981 16.4334L2.81864 12.8837Z" fill="#219EBC"/>
</svg>
