<svg width="30" height="33" viewBox="0 0 30 33" fill="none" xmlns="http://www.w3.org/2000/svg">
<g clip-path="url(#clip0_1007_567)">
<path d="M11.1007 14.6797C12.2545 15.5299 13.6119 15.9838 15.0007 15.9838C16.3894 15.9838 17.7469 15.5299 18.9007 14.6797C19.3975 15.7513 20.1676 16.6403 21.1166 17.238C22.0657 17.8357 23.1525 18.1161 24.2441 18.045C25.3358 17.9739 26.3849 17.5543 27.2631 16.8375C28.1414 16.1207 28.8106 15.1379 29.189 14.0093C29.5674 12.8807 29.6385 11.6553 29.3937 10.4829C29.1488 9.31051 28.5986 8.24207 27.8103 7.4083C27.0221 6.57452 26.03 6.01157 24.9554 5.78832C23.8809 5.56507 22.7705 5.69121 21.76 6.1513C21.3395 4.53641 20.4524 3.11604 19.2329 2.10491C18.0134 1.09378 16.5278 0.546875 15.0007 0.546875C13.4735 0.546875 11.9879 1.09378 10.7684 2.10491C9.54893 3.11604 8.66185 4.53641 8.24129 6.1513C7.23089 5.69121 6.12047 5.56507 5.0459 5.78832C3.97134 6.01157 2.97924 6.57452 2.19099 7.4083C1.40274 8.24207 0.852522 9.31051 0.607664 10.4829C0.362806 11.6553 0.433925 12.8807 0.812319 14.0093C1.19071 15.1379 1.85997 16.1207 2.73821 16.8375C3.61644 17.5543 4.66557 17.9739 5.75721 18.045C6.84886 18.1161 7.93568 17.8357 8.88471 17.238C9.83373 16.6403 10.6038 15.7513 11.1007 14.6797ZM27.6569 11.8593C27.6543 12.831 27.34 13.7705 26.7692 14.5121C26.1985 15.2538 25.4081 15.7501 24.5373 15.9134C23.6665 16.0768 22.7713 15.8967 22.0093 15.405C21.2474 14.9133 20.6678 14.1415 20.3725 13.2257C21.434 11.8474 22.0213 10.1026 22.0319 8.2963C22.6014 7.93465 23.2472 7.74406 23.9048 7.74365C24.5623 7.74324 25.2084 7.93302 25.7782 8.29395C26.3481 8.65488 26.8216 9.17428 27.1513 9.80006C27.4811 10.4258 27.6554 11.136 27.6569 11.8593ZM15.0007 2.57802C16.0205 2.57802 17.0174 2.91067 17.8653 3.5339C18.7133 4.15714 19.3742 5.04296 19.7644 6.07936C20.1547 7.11576 20.2568 8.25619 20.0578 9.35642C19.8589 10.4567 19.3678 11.4673 18.6467 12.2605C17.9256 13.0537 17.0068 13.5939 16.0066 13.8128C15.0064 14.0316 13.9696 13.9193 13.0275 13.49C12.0853 13.0607 11.28 12.3338 10.7134 11.401C10.1468 10.4683 9.84442 9.37169 9.84442 8.24989C9.84442 6.74562 10.3877 5.30296 11.3546 4.23927C12.3216 3.17559 13.6331 2.57802 15.0007 2.57802ZM6.09442 15.9843C5.51789 15.9867 4.9486 15.843 4.43079 15.5641C3.91298 15.2852 3.46061 14.8788 3.10881 14.3763C2.75701 13.8739 2.51527 13.289 2.40237 12.6671C2.28947 12.0452 2.30845 11.403 2.45784 10.7905C2.60723 10.1779 2.883 9.61153 3.26373 9.13529C3.64445 8.65905 4.11988 8.28578 4.65306 8.0445C5.18624 7.80322 5.76282 7.70042 6.33799 7.74409C6.91316 7.78776 7.47143 7.97673 7.96942 8.2963C7.98004 10.1026 8.56738 11.8474 9.62879 13.2257C9.37167 14.0313 8.8936 14.7293 8.26055 15.2234C7.62749 15.7175 6.87065 15.9834 6.09442 15.9843Z" fill="#219EBC"/>
<path d="M26.25 18.0469H21.5625C21.4058 18.0494 21.2493 18.0615 21.0938 18.083C20.766 17.4437 20.2891 16.9122 19.7123 16.5433C19.1355 16.1744 18.4797 15.9815 17.8125 15.9844H12.1875C11.5203 15.9815 10.8645 16.1744 10.2877 16.5433C9.71089 16.9122 9.23401 17.4437 8.90625 18.083C8.75072 18.0615 8.59424 18.0494 8.4375 18.0469H3.75C2.75544 18.0469 1.80161 18.4815 1.09835 19.2551C0.395088 20.0287 0 21.0779 0 22.1719L0 28.3594C0 28.9064 0.197544 29.431 0.549175 29.8178C0.900806 30.2046 1.37772 30.4219 1.875 30.4219H28.125C28.6223 30.4219 29.0992 30.2046 29.4508 29.8178C29.8025 29.431 30 28.9064 30 28.3594V22.1719C30 21.0779 29.6049 20.0287 28.9016 19.2551C28.1984 18.4815 27.2446 18.0469 26.25 18.0469ZM10.3125 20.1094C10.3125 19.5624 10.51 19.0378 10.8617 18.651C11.2133 18.2642 11.6902 18.0469 12.1875 18.0469H17.8125C18.3098 18.0469 18.7867 18.2642 19.1383 18.651C19.49 19.0378 19.6875 19.5624 19.6875 20.1094V28.3594H10.3125V20.1094ZM1.875 28.3594V22.1719C1.875 21.6249 2.07254 21.1003 2.42417 20.7135C2.77581 20.3267 3.25272 20.1094 3.75 20.1094H8.4375V28.3594H1.875ZM28.125 28.3594H21.5625V20.1094H26.25C26.7473 20.1094 27.2242 20.3267 27.5758 20.7135C27.9275 21.1003 28.125 21.6249 28.125 22.1719V28.3594Z" fill="#219EBC"/>
<path d="M15 22.1719C15.5178 22.1719 15.9375 21.7102 15.9375 21.1406C15.9375 20.5711 15.5178 20.1094 15 20.1094C14.4822 20.1094 14.0625 20.5711 14.0625 21.1406C14.0625 21.7102 14.4822 22.1719 15 22.1719Z" fill="#219EBC"/>
</g>
<defs>
<clipPath id="clip0_1007_567">
<rect width="30" height="33" fill="white"/>
</clipPath>
</defs>
</svg>
