<svg width="35" height="27" viewBox="0 0 35 27" fill="none" xmlns="http://www.w3.org/2000/svg">
<path d="M18.0017 13.8494C18.8517 13.1159 19.5335 12.2086 20.0008 11.1892C20.4681 10.1697 20.71 9.06201 20.7099 7.94118C20.7099 5.83505 19.8707 3.81518 18.3769 2.32592C16.8831 0.836658 14.8571 2.84153e-07 12.7446 2.84153e-07C10.632 2.84153e-07 8.60601 0.836658 7.11222 2.32592C5.61842 3.81518 4.77922 5.83505 4.77922 7.94118C4.7792 9.06201 5.02105 10.1697 5.48833 11.1892C5.95562 12.2086 6.63741 13.1159 7.48744 13.8494C5.25736 14.8562 3.36531 16.482 2.03751 18.5324C0.709706 20.5828 0.00234477 22.9711 0 25.4118C0 25.833 0.167841 26.237 0.4666 26.5348C0.765359 26.8327 1.17056 27 1.59307 27C2.01558 27 2.42079 26.8327 2.71954 26.5348C3.0183 26.237 3.18614 25.833 3.18614 25.4118C3.18614 22.8844 4.19319 20.4606 5.98575 18.6735C7.7783 16.8863 10.2095 15.8824 12.7446 15.8824C15.2796 15.8824 17.7109 16.8863 19.5034 18.6735C21.296 20.4606 22.303 22.8844 22.303 25.4118C22.303 25.833 22.4709 26.237 22.7696 26.5348C23.0684 26.8327 23.4736 27 23.8961 27C24.3186 27 24.7238 26.8327 25.0226 26.5348C25.3213 26.237 25.4892 25.833 25.4892 25.4118C25.4868 22.9711 24.7795 20.5828 23.4516 18.5324C22.1238 16.482 20.2318 14.8562 18.0017 13.8494ZM12.7446 12.7059C11.7993 12.7059 10.8753 12.4264 10.0894 11.9029C9.30345 11.3793 8.69089 10.6352 8.32916 9.76455C7.96743 8.89391 7.87279 7.93589 8.05719 7.01163C8.2416 6.08737 8.69678 5.23838 9.36516 4.57202C10.0335 3.90566 10.8851 3.45187 11.8122 3.26802C12.7393 3.08418 13.7002 3.17853 14.5735 3.53916C15.4468 3.89979 16.1932 4.5105 16.7184 5.29405C17.2435 6.0776 17.5238 6.99881 17.5238 7.94118C17.5238 9.20485 17.0203 10.4168 16.124 11.3103C15.2277 12.2039 14.0121 12.7059 12.7446 12.7059ZM28.2611 13.2141C29.2806 12.0695 29.9466 10.6556 30.1788 9.14242C30.4111 7.62928 30.1998 6.08147 29.5702 4.68529C28.9407 3.28912 27.9199 2.10409 26.6305 1.27285C25.3412 0.441609 23.8384 -0.00040913 22.303 2.84153e-07C21.8805 2.84153e-07 21.4753 0.167332 21.1765 0.465184C20.8778 0.763035 20.7099 1.16701 20.7099 1.58824C20.7099 2.00946 20.8778 2.41344 21.1765 2.71129C21.4753 3.00914 21.8805 3.17647 22.303 3.17647C23.5705 3.17647 24.7862 3.67847 25.6824 4.57202C26.5787 5.46558 27.0822 6.6775 27.0822 7.94118C27.08 8.77538 26.8581 9.59438 26.4387 10.3163C26.0194 11.0381 25.4173 11.6376 24.6926 12.0547C24.4564 12.1905 24.2592 12.3845 24.1197 12.6181C23.9802 12.8517 23.9032 13.1171 23.8961 13.3888C23.8894 13.6584 23.9517 13.9253 24.0772 14.1643C24.2026 14.4033 24.387 14.6064 24.613 14.7547L25.2343 15.1676L25.4414 15.2788C27.3616 16.1868 28.9817 17.623 30.1106 19.4183C31.2396 21.2135 31.8305 23.293 31.8137 25.4118C31.8137 25.833 31.9815 26.237 32.2803 26.5348C32.579 26.8327 32.9842 27 33.4067 27C33.8292 27 34.2344 26.8327 34.5332 26.5348C34.832 26.237 34.9998 25.833 34.9998 25.4118C35.0128 22.9745 34.4005 20.5744 33.2211 18.4395C32.0416 16.3046 30.3342 14.5058 28.2611 13.2141Z" fill="#219EBC"/>
</svg>
