<svg width="39" height="39" viewBox="0 0 39 39" fill="none" xmlns="http://www.w3.org/2000/svg">
<path d="M32.5529 34.9837H6.44727C5.07402 34.9821 3.75749 34.4359 2.78645 33.4649C1.81542 32.4938 1.26919 31.1773 1.26758 29.8041V14.1797C1.26919 12.8064 1.81542 11.4899 2.78645 10.5189C3.75749 9.54785 5.07402 9.00161 6.44727 9H32.5529C33.9261 9.00161 35.2427 9.54785 36.2137 10.5189C37.1847 11.4899 37.731 12.8064 37.7326 14.1797V29.8041C37.731 31.1773 37.1847 32.4938 36.2137 33.4649C35.2427 34.4359 33.9261 34.9821 32.5529 34.9837ZM6.44727 10.8281C5.55838 10.8281 4.70589 11.1812 4.07735 11.8098C3.44881 12.4383 3.0957 13.2908 3.0957 14.1797V29.8041C3.0957 30.693 3.44881 31.5454 4.07735 32.174C4.70589 32.8025 5.55838 33.1556 6.44727 33.1556H32.5529C33.4418 33.1556 34.2943 32.8025 34.9228 32.174C35.5513 31.5454 35.9044 30.693 35.9044 29.8041V14.1797C35.9044 13.2908 35.5513 12.4383 34.9228 11.8098C34.2943 11.1812 33.4418 10.8281 32.5529 10.8281H6.44727Z" fill="#219EBC"/>
<path d="M19.4998 25.2051C18.3722 25.2069 17.2748 24.841 16.3737 24.1631L2.14482 13.4015C2.04429 13.3309 1.95901 13.2409 1.89407 13.1366C1.82913 13.0323 1.78587 12.9161 1.76687 12.7947C1.74786 12.6734 1.75351 12.5495 1.78347 12.4304C1.81343 12.3112 1.86709 12.1994 1.94124 12.1015C2.01539 12.0036 2.10852 11.9216 2.21505 11.8605C2.32159 11.7994 2.43935 11.7603 2.5613 11.7457C2.68325 11.7311 2.80689 11.7413 2.92484 11.7755C3.04279 11.8098 3.15263 11.8675 3.24779 11.9451L17.4767 22.7188C18.061 23.155 18.7707 23.3907 19.4998 23.3907C20.229 23.3907 20.9386 23.155 21.5229 22.7188L35.7519 11.9451C35.847 11.8675 35.9569 11.8098 36.0748 11.7755C36.1928 11.7413 36.3164 11.7311 36.4383 11.7457C36.5603 11.7603 36.6781 11.7994 36.7846 11.8605C36.8911 11.9216 36.9843 12.0036 37.0584 12.1015C37.1326 12.1994 37.1862 12.3112 37.2162 12.4304C37.2461 12.5495 37.2518 12.6734 37.2328 12.7947C37.2138 12.9161 37.1705 13.0323 37.1056 13.1366C37.0406 13.2409 36.9554 13.3309 36.8548 13.4015L22.6259 24.1631C21.7249 24.841 20.6274 25.2069 19.4998 25.2051Z" fill="#219EBC"/>
<path d="M2.54041 31.9446C2.35502 31.9449 2.17393 31.8888 2.02117 31.7837C1.86841 31.6787 1.7512 31.5297 1.68509 31.3565C1.61898 31.1833 1.6071 30.9941 1.65103 30.8139C1.69495 30.6338 1.79261 30.4713 1.93103 30.348L13.1435 20.3482C13.3245 20.1866 13.5623 20.1035 13.8046 20.1172C14.0469 20.1309 14.2738 20.2403 14.4354 20.4213C14.597 20.6023 14.6801 20.8401 14.6664 21.0824C14.6527 21.3247 14.5433 21.5516 14.3623 21.7132L3.14978 31.713C2.98327 31.8645 2.76551 31.9473 2.54041 31.9446ZM36.4582 31.9446C36.2331 31.9473 36.0154 31.8645 35.8488 31.713L24.6363 21.7132C24.4553 21.5516 24.3459 21.3247 24.3322 21.0824C24.3185 20.8401 24.4016 20.6023 24.5632 20.4213C24.7248 20.2403 24.9517 20.1309 25.194 20.1172C25.4363 20.1035 25.6741 20.1866 25.8551 20.3482L37.0615 30.348C37.1999 30.4713 37.2976 30.6338 37.3415 30.8139C37.3854 30.9941 37.3736 31.1833 37.3074 31.3565C37.2413 31.5297 37.1241 31.6787 36.9714 31.7837C36.8186 31.8888 36.6375 31.9449 36.4521 31.9446H36.4582Z" fill="#219EBC"/>
</svg>
