<svg width="24" height="30" viewBox="0 0 24 30" fill="none" xmlns="http://www.w3.org/2000/svg">
<path d="M12 0C8.8174 0 5.76516 1.26428 3.51472 3.51471C1.26428 5.76514 0 8.81737 0 12C0 20.0999 10.575 29.2499 11.025 29.6399C11.2967 29.8723 11.6425 30 12 30C12.3575 30 12.7033 29.8723 12.975 29.6399C13.5 29.2499 24 20.0999 24 12C24 8.81737 22.7357 5.76514 20.4853 3.51471C18.2348 1.26428 15.1826 0 12 0ZM12 26.4749C8.805 23.4749 3 17.0099 3 12C3 9.61302 3.94821 7.32384 5.63604 5.63602C7.32387 3.9482 9.61305 2.99999 12 2.99999C14.3869 2.99999 16.6761 3.9482 18.364 5.63602C20.0518 7.32384 21 9.61302 21 12C21 17.0099 15.195 23.4899 12 26.4749ZM12 5.99998C10.8133 5.99998 9.65327 6.35187 8.66658 7.01116C7.67988 7.67045 6.91085 8.60751 6.45672 9.70387C6.0026 10.8002 5.88378 12.0066 6.11529 13.1705C6.3468 14.3344 6.91824 15.4035 7.75736 16.2426C8.59647 17.0817 9.66557 17.6531 10.8295 17.8847C11.9933 18.1162 13.1997 17.9973 14.2961 17.5432C15.3925 17.0891 16.3295 16.3201 16.9888 15.3334C17.6481 14.3467 18 13.1866 18 12C18 10.4087 17.3679 8.88255 16.2426 7.75733C15.1174 6.63212 13.5913 5.99998 12 5.99998ZM12 15C11.4067 15 10.8266 14.824 10.3333 14.4944C9.83994 14.1647 9.45542 13.6962 9.22836 13.148C9.0013 12.5998 8.94189 11.9966 9.05764 11.4147C9.1734 10.8328 9.45912 10.2982 9.87868 9.87865C10.2982 9.45909 10.8328 9.17337 11.4147 9.05761C11.9967 8.94186 12.5999 9.00127 13.1481 9.22833C13.6962 9.45539 14.1648 9.83991 14.4944 10.3333C14.8241 10.8266 15 11.4066 15 12C15 12.7956 14.6839 13.5587 14.1213 14.1213C13.5587 14.6839 12.7956 15 12 15Z" fill="#219EBC"/>
</svg>
