<svg width="40" height="40" viewBox="0 0 40 40" fill="none" xmlns="http://www.w3.org/2000/svg">
<path d="M35.3168 13.4L30.0168 8.10003C28.0168 6.10003 25.2668 6.20003 23.9168 8.35003L20.9668 13.0167L30.4168 22.4667L35.0835 19.5167C37.1001 18.2334 37.2168 15.2834 35.3168 13.4Z" stroke="#219EBC" stroke-width="1.5" stroke-linecap="round" stroke-linejoin="round"/>
<path d="M30.4164 22.4499L30.8164 29.3166C31.1997 33.1499 29.8664 34.4833 26.233 34.9166L11.6997 36.6333C8.63303 36.9833 6.43303 34.7833 6.79969 31.7333L8.43303 17.9333M20.9664 13.0166L18.0497 12.8333M8.79969 34.6333L14.0997 29.3166" stroke="#219EBC" stroke-width="1.5" stroke-linecap="round" stroke-linejoin="round"/>
<path d="M18.334 10.8334C18.334 11.5167 18.234 12.2001 18.0507 12.8334C17.6637 14.2428 16.8694 15.5067 15.7673 16.4667C14.4507 17.6334 12.734 18.3334 10.834 18.3334C9.98398 18.3334 9.18398 18.2001 8.43398 17.9334C6.75262 17.3686 5.3282 16.222 4.41732 14.7001C3.71146 13.5336 3.33693 12.1968 3.33398 10.8334C3.33398 8.46673 4.41732 6.35006 6.15065 4.9834C7.25225 4.09766 8.582 3.54173 9.98622 3.37985C11.3904 3.21797 12.8118 3.45675 14.0861 4.0686C15.3603 4.68044 16.4354 5.64037 17.1871 6.83745C17.9388 8.03452 18.3364 9.41988 18.334 10.8334Z" stroke="#219EBC" stroke-width="1.5" stroke-miterlimit="10" stroke-linecap="round" stroke-linejoin="round"/>
<path d="M10.8667 13.6334V8.03345M13.6 10.8334H8" stroke="#219EBC" stroke-width="1.5" stroke-miterlimit="10" stroke-linecap="round" stroke-linejoin="round"/>
</svg>
