<svg width="23" height="17" viewBox="0 0 23 17" fill="none" xmlns="http://www.w3.org/2000/svg">
<path d="M18.823 5.00218L18.9488 5.31649H19.2873H21.8619C21.8665 5.31649 21.8682 5.31732 21.869 5.31773C21.8705 5.31847 21.8727 5.32005 21.8748 5.3228C21.876 5.32424 21.8768 5.32563 21.8773 5.32684C21.8778 5.32795 21.8782 5.32892 21.8783 5.32968C21.8785 5.33052 21.8789 5.33229 21.8778 5.33657L21.6199 6.36852L21.6197 6.36895C21.6181 6.37556 21.612 6.3807 21.6044 6.3807H20.7413H19.4095L20.4122 7.25716C20.8891 7.67398 21.1904 8.27341 21.1904 8.94491V11.0091C21.1904 11.5715 20.9764 12.0825 20.6259 12.4831L20.5023 12.6245V12.8123V15.1375C20.5023 15.6213 20.1099 16.0137 19.6262 16.0137H18.25C17.7663 16.0137 17.3739 15.6213 17.3739 15.1375V13.7614V13.2614H16.8739H5.86475H5.36475V13.7614V15.1375C5.36475 15.6213 4.97236 16.0137 4.48861 16.0137H3.11247C2.62873 16.0137 2.23633 15.6213 2.23633 15.1375V12.8123V12.6246L2.11283 12.4833C1.76222 12.0821 1.54826 11.571 1.54826 11.0091V8.94491C1.54826 8.27343 1.84953 7.67407 2.32672 7.25728L3.33034 6.3807H1.9978H1.1347C1.1271 6.3807 1.12096 6.37556 1.11931 6.36895L1.1192 6.36852L0.861178 5.33642L0.861065 5.33596C0.86001 5.33176 0.860389 5.33007 0.860557 5.32933L0.860562 5.3293C0.86089 5.32783 0.861823 5.32538 0.863925 5.32269C0.866027 5.32 0.868221 5.31845 0.86967 5.31772C0.870451 5.31733 0.872134 5.31649 0.876678 5.31649H3.45092H3.78944L3.91516 5.00218L4.63074 3.21322C4.63074 3.21322 4.63075 3.21321 4.63075 3.2132C5.29061 1.56376 6.86218 0.5 8.63854 0.5H14.1001C15.8769 0.5 17.448 1.56375 18.1074 3.21313L18.1074 3.2132L18.823 5.00218ZM0.376107 5.45768L0.634133 6.48979L0.876678 4.81649C0.540814 4.81649 0.294398 5.13214 0.376107 5.45768ZM6.25761 3.86398L6.25759 3.86404L5.40051 6.00695L5.12626 6.69263H5.86475H16.8739H17.6124L17.3381 6.00695L16.481 3.86404L16.481 3.86398C16.0916 2.89063 15.1487 2.25228 14.1001 2.25228H8.63854C7.58993 2.25228 6.64706 2.89063 6.25761 3.86398ZM2.61247 9.62868C2.61247 10.1543 2.79046 10.631 3.13791 10.9774C3.48522 11.3236 3.96262 11.5005 4.48861 11.5005C4.56799 11.5005 4.65922 11.5023 4.75823 11.5043C5.1056 11.5111 5.54881 11.5199 5.9123 11.4595C6.15293 11.4195 6.43181 11.3404 6.65815 11.1599C6.91018 10.9589 7.05282 10.6673 7.05282 10.3146C7.05282 9.99185 6.9348 9.67452 6.78316 9.40242C6.62808 9.12415 6.41731 8.85617 6.18335 8.62295C5.94938 8.38971 5.68065 8.17969 5.40172 8.02521C5.12891 7.87412 4.81127 7.75684 4.48861 7.75684C3.96262 7.75684 3.48522 7.93376 3.13791 8.27999C2.79046 8.62635 2.61247 9.10303 2.61247 9.62868ZM15.6858 10.3146C15.6858 10.6673 15.8284 10.9589 16.0805 11.1599C16.3068 11.3404 16.5857 11.4195 16.8263 11.4595C17.1898 11.5199 17.633 11.5111 17.9804 11.5043C18.0794 11.5023 18.1706 11.5005 18.25 11.5005C18.776 11.5005 19.2534 11.3236 19.6007 10.9774C19.9482 10.631 20.1262 10.1543 20.1262 9.62868C20.1262 9.10303 19.9482 8.62635 19.6007 8.27999C19.2534 7.93376 18.776 7.75684 18.25 7.75684C17.9274 7.75684 17.6097 7.87412 17.3369 8.02521C17.058 8.17969 16.7892 8.38971 16.5553 8.62295C16.3213 8.85617 16.1105 9.12415 15.9555 9.40242C15.8038 9.67452 15.6858 9.99185 15.6858 10.3146Z" fill="#207E1E" stroke="#023047"/>
</svg>
