<svg width="23" height="18" viewBox="0 0 23 18" fill="none" xmlns="http://www.w3.org/2000/svg">
<path d="M19.1844 5.84911L19.3101 6.16341H19.6486H22.2233C22.2278 6.16341 22.2295 6.16425 22.2303 6.16465C22.2318 6.16539 22.234 6.16697 22.2362 6.16972C22.2373 6.17117 22.2381 6.17255 22.2387 6.17377C22.2392 6.17488 22.2395 6.17585 22.2397 6.1766C22.2398 6.17744 22.2402 6.17921 22.2392 6.18349L21.9812 7.21545L21.9811 7.21587C21.9794 7.22249 21.9733 7.22762 21.9657 7.22762H21.1026H19.7708L20.7735 8.10408C21.2504 8.5209 21.5517 9.12033 21.5517 9.79183V11.856C21.5517 12.4184 21.3377 12.9294 20.9873 13.33L20.8636 13.4714V13.6592V15.9845C20.8636 16.4682 20.4712 16.8606 19.9875 16.8606H18.6113C18.1276 16.8606 17.7352 16.4682 17.7352 15.9845V14.6083V14.1083H17.2352H6.22608H5.72608V14.6083V15.9845C5.72608 16.4682 5.33369 16.8606 4.84994 16.8606H3.4738C2.99006 16.8606 2.59766 16.4682 2.59766 15.9845V13.6592V13.4715L2.47416 13.3302C2.12355 12.929 1.90959 12.4179 1.90959 11.856V9.79183C1.90959 9.12036 2.21086 8.52099 2.68804 8.10421L3.69167 7.22762H2.35913H1.49603C1.48843 7.22762 1.48229 7.22249 1.48064 7.21587L1.48053 7.21545L1.22251 6.18334L1.22239 6.18289C1.22134 6.17869 1.22172 6.177 1.22188 6.17625L1.22189 6.17623C1.22222 6.17476 1.22315 6.17231 1.22525 6.16961C1.22735 6.16692 1.22955 6.16537 1.231 6.16464C1.23178 6.16425 1.23346 6.16341 1.23801 6.16341H3.81225H4.15076L4.27649 5.84911L4.99207 4.06015C4.99207 4.06014 4.99208 4.06013 4.99208 4.06013C5.65194 2.41068 7.22351 1.34692 8.99986 1.34692H14.4614C16.2382 1.34692 17.8093 2.41068 18.4687 4.06005L18.4688 4.06013L19.1844 5.84911ZM0.737435 6.30461L0.995461 7.33671L1.23801 5.66341C0.902142 5.66341 0.655727 5.97907 0.737435 6.30461ZM6.61894 4.71091L6.61891 4.71097L5.76184 6.85387L5.48759 7.53955H6.22608H17.2352H17.9737L17.6994 6.85387L16.8424 4.71097L16.8423 4.71091C16.4529 3.73755 15.51 3.0992 14.4614 3.0992H8.99986C7.95126 3.0992 7.00839 3.73755 6.61894 4.71091ZM2.9738 10.4756C2.9738 11.0012 3.15179 11.4779 3.49924 11.8243C3.84655 12.1705 4.32395 12.3474 4.84994 12.3474C4.92932 12.3474 5.02055 12.3492 5.11956 12.3512C5.46693 12.358 5.91014 12.3668 6.27363 12.3064C6.51426 12.2664 6.79314 12.1874 7.01948 12.0069C7.27151 11.8059 7.41415 11.5142 7.41415 11.1615C7.41415 10.8388 7.29612 10.5214 7.14449 10.2493C6.98941 9.97108 6.77863 9.7031 6.54468 9.46987C6.31071 9.23664 6.04197 9.02661 5.76305 8.87214C5.49023 8.72105 5.1726 8.60376 4.84994 8.60376C4.32395 8.60376 3.84655 8.78069 3.49924 9.12691C3.15179 9.47328 2.9738 9.94995 2.9738 10.4756ZM16.0471 11.1615C16.0471 11.5142 16.1898 11.8059 16.4418 12.0069C16.6681 12.1874 16.947 12.2664 17.1877 12.3064C17.5511 12.3668 17.9944 12.358 18.3417 12.3512C18.4407 12.3492 18.532 12.3474 18.6113 12.3474C19.1373 12.3474 19.6147 12.1705 19.962 11.8243C20.3095 11.4779 20.4875 11.0012 20.4875 10.4756C20.4875 9.94995 20.3095 9.47328 19.962 9.12691C19.6147 8.78069 19.1373 8.60376 18.6113 8.60376C18.2887 8.60376 17.971 8.72105 17.6982 8.87214C17.4193 9.02661 17.1506 9.23664 16.9166 9.46987C16.6826 9.7031 16.4719 9.97108 16.3168 10.2493C16.1652 10.5214 16.0471 10.8388 16.0471 11.1615Z" fill="#ABA8A8" stroke="#023047"/>
</svg>
