<svg width="48" height="48" viewBox="0 0 48 48" fill="none" xmlns="http://www.w3.org/2000/svg">
<path d="M42.9311 7.48412L6.16504 14.5928L10.2339 35.637L47 28.5284L42.9311 7.48412Z" fill="#569F7D"/>
<path d="M40.6103 13.2457L3.36426 17.1196L5.58165 38.4386L42.8277 34.5646L40.6103 13.2457Z" fill="#60B18B"/>
<path d="M38.447 19.0811H1V40.5151H38.447V19.0811Z" fill="#8ED8B5"/>
<path d="M35.0003 34.4781C34.204 34.4799 33.441 34.7976 32.8786 35.3613C32.3162 35.925 32.0003 36.6888 32.0003 37.4851H7.45331C7.45331 37.0901 7.3755 36.699 7.22432 36.3341C7.07314 35.9692 6.85156 35.6377 6.57223 35.3585C6.2929 35.0792 5.96129 34.8577 5.59635 34.7067C5.23141 34.5556 4.84028 34.478 4.44531 34.4781V25.1191C4.84033 25.1191 5.23148 25.0413 5.59642 24.8901C5.96137 24.7389 6.29297 24.5174 6.57229 24.2381C6.85161 23.9587 7.07318 23.6271 7.22434 23.2622C7.37551 22.8972 7.45331 22.5061 7.45331 22.1111H32.0003C32 22.9076 32.3158 23.6716 32.8782 24.2355C33.4406 24.7995 34.2038 25.1172 35.0003 25.1191V34.4781Z" fill="#B1DFBC"/>
<path d="M19.7239 34.3101C22.2158 34.3101 24.2359 32.29 24.2359 29.7981C24.2359 27.3062 22.2158 25.2861 19.7239 25.2861C17.232 25.2861 15.2119 27.3062 15.2119 29.7981C15.2119 32.29 17.232 34.3101 19.7239 34.3101Z" fill="#8ED8B5"/>
<path d="M41.346 9.77111L45.046 28.9071L47 28.5291L42.931 7.48511L6.16504 14.5941L6.53404 16.5021L41.346 9.77111Z" fill="#60B18B"/>
<path d="M39.0253 15.5321L41.0243 34.7521L42.8273 34.5651L40.6103 13.2461L3.36426 17.1201L3.58226 19.2191L39.0253 15.5321Z" fill="#8ED8B5"/>
<path d="M1 19.0811V21.1111H36.4V40.5151H38.447V19.0811H1Z" fill="#B1DFBC"/>
<path d="M5.26831 24.99C5.00135 25.0712 4.72432 25.1146 4.44531 25.119V26.333C4.83437 25.9666 5.11849 25.503 5.26831 24.99ZM30.7483 37.485H32.0003C32.0044 37.1969 32.0502 36.9109 32.1363 36.636C31.604 36.7851 31.1235 37.079 30.7483 37.485Z" fill="#8ED8B5"/>
<path d="M32.0003 22.1111H7.45332C7.45199 22.8644 7.16626 23.5894 6.65332 24.1411H29.9533C29.9533 24.5361 30.0311 24.9272 30.1823 25.292C30.3335 25.6569 30.5551 25.9885 30.8344 26.2677C31.1137 26.5469 31.4453 26.7684 31.8103 26.9195C32.1752 27.0705 32.5663 27.1482 32.9613 27.1481V35.2931C33.5129 34.7725 34.2418 34.4811 35.0003 34.4781V25.1191C34.2039 25.1172 33.4407 24.7995 32.8782 24.2355C32.3158 23.6716 32.0001 22.9076 32.0003 22.1111Z" fill="#C1ECD0"/>
<path d="M19.7241 25.286C18.8881 25.2882 18.0692 25.5233 17.3593 25.9649C16.6495 26.4065 16.0766 27.0371 15.7051 27.786C16.3171 27.4793 16.9915 27.3178 17.6761 27.314C18.2686 27.314 18.8553 27.4307 19.4027 27.6574C19.9502 27.8842 20.4476 28.2165 20.8665 28.6355C21.2855 29.0545 21.6179 29.5519 21.8446 30.0993C22.0714 30.6467 22.1881 31.2334 22.1881 31.826C22.1837 32.5253 22.0148 33.2139 21.6951 33.836C22.6137 33.3922 23.3542 32.6495 23.7953 31.7297C24.2364 30.8098 24.3519 29.7674 24.1228 28.7733C23.8937 27.7792 23.3336 26.8925 22.5344 26.2585C21.7352 25.6245 20.7442 25.2809 19.7241 25.284V25.286Z" fill="#B1DFBC"/>
<path d="M38.447 41.5151H1C0.734784 41.5151 0.48043 41.4097 0.292893 41.2222C0.105357 41.0346 0 40.7803 0 40.5151V19.0811C0 18.8158 0.105357 18.5615 0.292893 18.3739C0.48043 18.1864 0.734784 18.0811 1 18.0811H38.447C38.7122 18.0811 38.9666 18.1864 39.1541 18.3739C39.3416 18.5615 39.447 18.8158 39.447 19.0811V40.5151C39.447 40.7803 39.3416 41.0346 39.1541 41.2222C38.9666 41.4097 38.7122 41.5151 38.447 41.5151ZM2 39.5151H37.447V20.0811H2V39.5151Z" fill="#1C1C1B"/>
<path d="M32.0003 38.4851H7.45331C7.1881 38.4851 6.93374 38.3797 6.74621 38.1922C6.55867 38.0047 6.45331 37.7503 6.45331 37.4851C6.45252 36.9529 6.24067 36.4427 5.86425 36.0664C5.48782 35.6902 4.97753 35.4786 4.44531 35.4781C4.1801 35.4781 3.92574 35.3727 3.73821 35.1852C3.55067 34.9977 3.44531 34.7433 3.44531 34.4781V25.1191C3.44531 24.8539 3.55067 24.5995 3.73821 24.412C3.92574 24.2244 4.1801 24.1191 4.44531 24.1191C4.97762 24.1183 5.48791 23.9065 5.86431 23.5301C6.24071 23.1537 6.45252 22.6434 6.45331 22.1111C6.45331 21.8459 6.55867 21.5915 6.74621 21.404C6.93374 21.2164 7.1881 21.1111 7.45331 21.1111H32.0003C32.2655 21.1111 32.5199 21.2164 32.7074 21.404C32.895 21.5915 33.0003 21.8459 33.0003 22.1111C33.0008 22.6421 33.2115 23.1513 33.5862 23.5276C33.9609 23.9038 34.4693 24.1164 35.0003 24.1191C35.2655 24.1191 35.5199 24.2244 35.7074 24.412C35.895 24.5995 36.0003 24.8539 36.0003 25.1191V34.4781C36.0003 34.7433 35.895 34.9977 35.7074 35.1852C35.5199 35.3727 35.2655 35.4781 35.0003 35.4781C34.4682 35.4786 33.958 35.6902 33.5817 36.0665C33.2055 36.4428 32.9938 36.953 32.9933 37.4851C32.9933 37.7491 32.8889 38.0024 32.7029 38.1897C32.5169 38.3771 32.2643 38.4832 32.0003 38.4851ZM8.33131 36.4851H31.1313C31.3101 35.7927 31.6702 35.1604 32.1744 34.6534C32.6787 34.1463 33.3089 33.7827 34.0003 33.6001V25.9921C33.3071 25.8118 32.6746 25.4497 32.1681 24.9433C31.6617 24.4368 31.2996 23.8043 31.1193 23.1111H8.32631C8.14624 23.8044 7.78423 24.437 7.27773 24.9435C6.77122 25.45 6.13861 25.812 5.44531 25.9921V33.6001C6.13901 33.7807 6.77184 34.1434 7.27836 34.6506C7.78487 35.1578 8.14667 35.7911 8.32631 36.4851H8.33131Z" fill="#1C1C1B"/>
<path d="M19.7239 35.3101C18.6336 35.3103 17.5678 34.9872 16.6612 34.3815C15.7545 33.7759 15.0479 32.915 14.6306 31.9077C14.2133 30.9004 14.1041 29.792 14.3169 28.7227C14.5296 27.6533 15.0547 26.6711 15.8257 25.9002C16.5967 25.1293 17.5791 24.6044 18.6485 24.3919C19.7178 24.1793 20.8262 24.2887 21.8334 24.7062C22.8407 25.1237 23.7014 25.8305 24.3069 26.7372C24.9124 27.6439 25.2353 28.7098 25.2349 29.8001C25.2326 31.2609 24.6511 32.6612 23.6181 33.694C22.5851 34.7269 21.1847 35.308 19.7239 35.3101ZM19.7239 26.2871C19.0293 26.2869 18.3503 26.4927 17.7726 26.8785C17.195 27.2642 16.7447 27.8126 16.4787 28.4542C16.2127 29.0959 16.1429 29.802 16.2782 30.4833C16.4135 31.1646 16.7479 31.7905 17.2389 32.2818C17.7299 32.7731 18.3556 33.1078 19.0368 33.2435C19.718 33.3792 20.4242 33.3098 21.066 33.0442C21.7078 32.7786 22.2564 32.3286 22.6425 31.7511C23.0286 31.1737 23.2347 30.4947 23.2349 29.8001C23.2344 28.8689 22.8644 27.976 22.2061 27.3174C21.5479 26.6587 20.6551 26.2882 19.7239 26.2871Z" fill="#1C1C1B"/>
<path d="M40.8189 35.7879C40.5623 35.788 40.3156 35.6894 40.1296 35.5126C39.9437 35.3358 39.8329 35.0943 39.82 34.838C39.8072 34.5818 39.8933 34.3304 40.0606 34.1358C40.2279 33.9413 40.4636 33.8186 40.7189 33.7929L41.8729 33.6719L39.8429 14.3449L7.6499 17.7249C7.38601 17.7527 7.12192 17.6744 6.91572 17.5074C6.70952 17.3404 6.57811 17.0983 6.5504 16.8344C6.52268 16.5705 6.60093 16.3065 6.76793 16.1003C6.93493 15.8941 7.17701 15.7627 7.4409 15.7349L40.6249 12.2509C40.7556 12.2371 40.8877 12.2491 41.0137 12.2863C41.1397 12.3236 41.2572 12.3853 41.3594 12.468C41.4615 12.5506 41.5464 12.6526 41.6091 12.7681C41.6718 12.8835 41.7112 13.0102 41.7249 13.1409L43.9639 34.4579C43.9778 34.5886 43.9657 34.7207 43.9285 34.8468C43.8912 34.9728 43.8295 35.0902 43.7469 35.1924C43.6642 35.2946 43.5622 35.3794 43.4468 35.4422C43.3313 35.5049 43.2046 35.5442 43.0739 35.5579L40.9249 35.7839C40.8889 35.7859 40.8539 35.7879 40.8189 35.7879Z" fill="#1C1C1B"/>
<path d="M45.3666 29.848C45.1179 29.8478 44.8782 29.7549 44.6943 29.5875C44.5104 29.42 44.3955 29.1901 44.372 28.9425C44.3485 28.6948 44.4181 28.4474 44.5673 28.2483C44.7164 28.0493 44.9344 27.913 45.1786 27.866L45.8296 27.741L42.1676 8.65502L10.8266 14.667C10.6975 14.6918 10.5647 14.6908 10.4359 14.6643C10.3071 14.6377 10.1848 14.5861 10.076 14.5123C9.85618 14.3632 9.70461 14.1329 9.65462 13.872C9.62987 13.7429 9.63079 13.6101 9.65735 13.4813C9.6839 13.3525 9.73557 13.2302 9.80939 13.1214C9.88321 13.0125 9.97775 12.9193 10.0876 12.847C10.1975 12.7747 10.3205 12.7248 10.4496 12.7L42.7736 6.50002C43.0339 6.45018 43.3033 6.50571 43.5227 6.6544C43.7421 6.80309 43.8935 7.03279 43.9436 7.29302L47.9816 28.344C48.0314 28.6045 47.9758 28.874 47.8269 29.0934C47.678 29.3128 47.448 29.4641 47.1876 29.514L45.5556 29.827C45.4934 29.8399 45.4301 29.8469 45.3666 29.848Z" fill="#1C1C1B"/>
</svg>
