<svg width="13" height="11" viewBox="0 0 13 11" fill="none" xmlns="http://www.w3.org/2000/svg">
<path d="M12.9187 5.15117C12.8671 5.03874 12.7898 4.93603 12.6911 4.84892L7.27219 0.269362C7.17114 0.183964 7.05117 0.116222 6.91915 0.0700052C6.78712 0.023788 6.64561 0 6.5027 0C6.21409 0 5.9373 0.0968925 5.73322 0.269362C5.63217 0.35476 5.55201 0.456143 5.49732 0.567721C5.44263 0.679299 5.41448 0.798888 5.41448 0.91966C5.41448 1.16357 5.52914 1.39749 5.73322 1.56996L9.3097 4.58331H1.08378C0.796346 4.58331 0.520682 4.6798 0.317433 4.85157C0.114184 5.02334 0 5.2563 0 5.49922C0 5.74213 0.114184 5.9751 0.317433 6.14687C0.520682 6.31863 0.796346 6.41513 1.08378 6.41513H9.3097L5.73322 9.42848C5.63163 9.51363 5.55101 9.61493 5.49599 9.72654C5.44096 9.83815 5.41263 9.95787 5.41263 10.0788C5.41263 10.1997 5.44096 10.3194 5.49599 10.431C5.55101 10.5426 5.63163 10.6439 5.73322 10.7291C5.83397 10.8149 5.95384 10.8831 6.0859 10.9296C6.21797 10.9761 6.35963 11 6.5027 11C6.64577 11 6.78743 10.9761 6.9195 10.9296C7.05157 10.8831 7.17144 10.8149 7.27219 10.7291L12.6911 6.14952C12.7898 6.06241 12.8671 5.95969 12.9187 5.84727C13.0271 5.62428 13.0271 5.37416 12.9187 5.15117Z" fill="white"/>
</svg>
