<svg width="16" height="16" viewBox="0 0 16 16" fill="none" xmlns="http://www.w3.org/2000/svg">
<path d="M15.5065 13.366L11.7896 9.587C12.3691 8.62007 12.6747 7.50926 12.6729 6.377C12.6729 2.96 9.76054 8.08612e-08 6.39972 8.08612e-08C5.60069 -0.000131279 4.80945 0.159785 4.07121 0.470614C3.33297 0.781443 2.6622 1.2371 2.09719 1.81154C1.53219 2.38599 1.08402 3.06799 0.778306 3.81856C0.472587 4.56914 0.315301 5.37361 0.31543 6.186C0.31543 9.602 3.22775 12.563 6.58758 12.563C7.66453 12.564 8.72222 12.2726 9.65137 11.719L13.3879 15.52C13.5636 15.6982 13.8017 15.7983 14.0498 15.7983C14.298 15.7983 14.5361 15.6982 14.7118 15.52L15.6393 14.577C16.0042 14.206 15.8714 13.737 15.5065 13.366ZM2.18813 6.186C2.188 5.6236 2.29684 5.06667 2.50843 4.54704C2.72003 4.02741 3.03023 3.55525 3.42133 3.15752C3.81242 2.7598 4.27675 2.4443 4.78779 2.22904C5.29883 2.01379 5.84657 1.903 6.39972 1.903C8.72682 1.903 10.8002 4.01 10.8002 6.377C10.7999 7.51284 10.356 8.60209 9.56604 9.40525C8.77609 10.2084 7.70475 10.6597 6.58758 10.66C4.26048 10.659 2.18813 8.551 2.18813 6.186Z" fill="#219EBC"/>
</svg>
