<svg width="21" height="20" viewBox="0 0 21 20" fill="none" xmlns="http://www.w3.org/2000/svg">
<path d="M17.6066 3.49404L17.5988 3.48477L17.5865 3.49723C17.4756 3.3813 17.3619 3.2665 17.245 3.15362L17.2619 3.13693L17.2593 3.13468L19.8215 0.573337C19.8217 0.573087 19.822 0.572838 19.8222 0.572589C19.8697 0.526071 19.9335 0.5 20 0.5C20.0663 0.5 20.13 0.525954 20.1775 0.572276C20.2712 0.667163 20.2708 0.82975 20.1764 0.924148L17.6066 3.49404ZM15.002 1.4967C15.1011 1.4967 15.1905 1.56037 15.2302 1.64775C15.1413 1.59734 15.0518 1.54822 14.9618 1.5003C14.9749 1.49793 14.9884 1.4967 15.002 1.4967ZM19.0929 5.51498C19.1844 5.55277 19.252 5.64458 19.252 5.7467C19.252 5.76282 19.2502 5.77883 19.2468 5.7945C19.197 5.70053 19.1457 5.60733 19.0929 5.51498Z" fill="#FB8500" stroke="#023047"/>
<path d="M14.5127 6.14943L14.5127 6.14958L14.5243 6.15424C14.672 6.21332 14.8252 6.25 15 6.25H18.7211C19.2188 7.40797 19.5 8.67246 19.5 10C19.5 15.2439 15.2439 19.5 10 19.5C4.75614 19.5 0.5 15.2439 0.5 10C0.5 4.75614 4.75614 0.5 10 0.5C11.3275 0.5 12.592 0.781234 13.75 1.2789V5H13.75L13.75 5.00606C13.7519 5.15649 13.7785 5.30559 13.8288 5.44735L13.8342 5.46251L13.8406 5.47729C13.9702 5.77919 14.2108 6.01979 14.5127 6.14943ZM13.75 11.98C13.75 11.1388 13.5002 10.5298 13.1121 10.0973C12.838 9.79176 12.5161 9.59859 12.225 9.46914C12.3136 9.48933 12.4056 9.5 12.5 9.5C13.1861 9.5 13.75 8.93614 13.75 8.25C13.75 6.74605 12.6592 5.47964 11.23 5.27798C11.1241 4.69631 10.6104 4.25 10 4.25C9.4009 4.25 8.89502 4.67988 8.77632 5.24569C7.35549 5.33909 6.25 6.57 6.25 8.02C6.25 8.86118 6.4998 9.47022 6.88786 9.90269C7.16205 10.2082 7.48391 10.4014 7.77505 10.5309C7.68644 10.5107 7.59438 10.5 7.5 10.5C6.80956 10.5 6.25 11.0682 6.25 11.76C6.25 13.264 7.3408 14.5304 8.76999 14.732C8.87589 15.3137 9.38955 15.76 10 15.76C10.6027 15.76 11.111 15.325 11.2258 14.7542C12.6456 14.6597 13.75 13.4293 13.75 11.98ZM11.25 8.25C11.25 8.715 11.509 9.12384 11.8895 9.33907L11.25 9.11526V8.25ZM8.75 11.75C8.75 11.285 8.49103 10.8762 8.11053 10.6609L8.75 10.8847V11.75Z" fill="#FB8500" stroke="#023047"/>
<path d="M8.25 8.77658C8.25 9.31658 8.4 9.39658 8.74 9.51658L9.25 9.69658V7.99658H8.95C8.57 7.99658 8.25 8.34658 8.25 8.77658Z" fill="#FB8500"/>
</svg>
