<svg width="22" height="19" viewBox="0 0 22 19" fill="none" xmlns="http://www.w3.org/2000/svg">
<path d="M4.1281 3.7207H14.4374C16.0902 3.7207 16.926 3.93795 17.3871 4.39294C17.8458 4.84564 18.0655 5.66497 18.0655 7.29422V7.92763C18.0655 8.25214 17.7979 8.51972 17.4734 8.51972H1.09209C0.767583 8.51972 0.5 8.25214 0.5 7.92763V7.29422C0.5 5.8234 0.680284 5.00886 1.05939 4.53054C1.41605 4.08053 2.04471 3.81668 3.30146 3.74193C3.56169 3.7311 3.83521 3.7207 4.1281 3.7207Z" fill="#219EBC" stroke="#023047"/>
<path d="M0.5 11.7486C0.5 11.4241 0.767583 11.1565 1.09209 11.1565H17.4734C17.7979 11.1565 18.0655 11.4241 18.0655 11.7486V15.0987C18.0489 16.6492 17.8194 17.4242 17.3629 17.8537C16.8974 18.2916 16.0625 18.5001 14.4374 18.5001H4.1281C2.47531 18.5001 1.63953 18.2828 1.17845 17.8278C0.719686 17.3751 0.5 16.5558 0.5 14.9266V11.7486ZM3.54929 16.8354H5.41676C5.92706 16.8354 6.37342 16.547 6.59616 16.125C6.81754 16.5458 7.25983 16.8354 7.76476 16.8354H11.5215C12.2607 16.8354 12.8406 16.2358 12.8406 15.5163C12.8406 14.7924 12.2454 14.1972 11.5215 14.1972H7.76476C7.25988 14.1972 6.81762 14.4867 6.59622 14.9075C6.37482 14.4867 5.93256 14.1972 5.42769 14.1972H3.54929C2.82539 14.1972 2.23022 14.7924 2.23022 15.5163C2.23022 16.2402 2.82539 16.8354 3.54929 16.8354Z" fill="#219EBC" stroke="#023047"/>
<path d="M21.8439 10.6261V4.90348C21.8439 1.48524 19.8891 0 16.9404 0H7.18803C6.35804 0 5.61542 0.12013 4.96016 0.37131C4.44688 0.556966 3.9882 0.829988 3.61689 1.19038C3.42032 1.37603 3.57321 1.68182 3.85715 1.68182H15.7282C18.1854 1.68182 20.173 3.66942 20.173 6.12662V13.9569C20.173 14.23 20.4679 14.3829 20.6644 14.1863C21.418 13.3891 21.8439 12.2205 21.8439 10.6261Z" fill="#636363"/>
</svg>
