<svg width="24" height="17" viewBox="0 0 24 17" fill="none" xmlns="http://www.w3.org/2000/svg">
<path d="M13.4646 5.85704C13.4646 7.61252 12.0415 9.03561 10.286 9.03561C8.53052 9.03561 7.10742 7.61252 7.10742 5.85704C7.10742 4.10156 8.53052 2.67847 10.286 2.67847C12.0415 2.67847 13.4646 4.10156 13.4646 5.85704ZM12.2503 5.85704C12.2503 4.7722 11.3708 3.89275 10.286 3.89275C9.20116 3.89275 8.32171 4.7722 8.32171 5.85704C8.32171 6.94187 9.20116 7.82132 10.286 7.82132C11.3708 7.82132 12.2503 6.94187 12.2503 5.85704Z" fill="#207E1E" stroke="#023047" stroke-width="0.5"/>
<path d="M1.46429 3.42857V3.67857H1.71429H2.57143C3.18288 3.67857 3.67857 3.18288 3.67857 2.57143V1.71429V1.46429H3.42857H2.14286C1.76809 1.46429 1.46429 1.76809 1.46429 2.14286V3.42857ZM3.42857 12.25H3.67857V12V11.1429C3.67857 10.5314 3.18288 10.0357 2.57143 10.0357H1.71429H1.46429V10.2857V11.5714C1.46429 11.9462 1.76809 12.25 2.14286 12.25H3.42857ZM4.89286 12V12.25H5.14286H15.4286H15.6786V12V11.1429C15.6786 9.86077 16.718 8.82143 18 8.82143H18.8571H19.1071V8.57143V5.14286V4.89286H18.8571H18C16.718 4.89286 15.6786 3.85352 15.6786 2.57143V1.71429V1.46429H15.4286H5.14286H4.89286V1.71429V2.57143C4.89286 3.85352 3.85352 4.89286 2.57143 4.89286H1.71429H1.46429V5.14286V8.57143V8.82143H1.71429H2.57143C3.85352 8.82143 4.89286 9.86076 4.89286 11.1429V12ZM16.8929 12V12.25H17.1429H18.4286C18.8034 12.25 19.1071 11.9462 19.1071 11.5714V10.2857V10.0357H18.8571H18C17.3886 10.0357 16.8929 10.5314 16.8929 11.1429V12ZM18.8571 3.67857H19.1071V3.42857V2.14286C19.1071 1.76811 18.8034 1.46429 18.4286 1.46429H17.1429H16.8929V1.71429V2.57143C16.8929 3.1829 17.3886 3.67857 18 3.67857H18.8571ZM0.25 2.14286C0.25 1.09745 1.09745 0.25 2.14286 0.25H18.4286C19.474 0.25 20.3214 1.09745 20.3214 2.14286V11.5714C20.3214 12.6169 19.474 13.4643 18.4286 13.4643H2.14286C1.09745 13.4643 0.25 12.6169 0.25 11.5714V2.14286Z" fill="#207E1E" stroke="#023047" stroke-width="0.5"/>
<path d="M5.99993 16.1429C4.85719 16.1429 3.88855 15.3976 3.55371 14.3664C3.79157 14.4074 4.03611 14.4286 4.28564 14.4286H18.4285C20.5587 14.4286 22.2856 12.7017 22.2856 10.5715V2.57495C23.2844 2.92796 23.9999 3.88045 23.9999 5.00007V10.5715C23.9999 13.6485 21.5055 16.1429 18.4285 16.1429H5.99993Z" fill="#636363"/>
</svg>
