<svg width="26" height="20" viewBox="0 0 26 20" fill="none" xmlns="http://www.w3.org/2000/svg">
<path d="M21.8855 5.8732L22.0112 6.18751H22.3497H25.39C25.4614 6.18751 25.5136 6.25473 25.4965 6.32354L25.1918 7.54214L25.1917 7.54257C25.1797 7.59071 25.1362 7.62501 25.0858 7.62501H24.0666H22.7348L23.7376 8.50147C24.3188 9.00952 24.6873 9.74154 24.6873 10.5625V13C24.6873 13.6879 24.4254 14.312 23.9985 14.8001L23.8748 14.9415V15.1293V17.875C23.8748 18.4962 23.371 19 22.7498 19H21.1248C20.5037 19 19.9998 18.4962 19.9998 17.875V16.25V15.75H19.4998H6.49982H5.99982V16.25V17.875C5.99982 18.4962 5.49599 19 4.87482 19H3.24982C2.62866 19 2.12482 18.4962 2.12482 17.875V15.1293V14.9416L2.00131 14.8003C1.57418 14.3115 1.31232 13.6873 1.31232 13V10.5625C1.31232 9.74156 1.68085 9.0096 2.26248 8.50159L3.26611 7.62501H1.93357H0.914387C0.863936 7.62501 0.820461 7.59071 0.80847 7.54257L0.808364 7.54214L0.503676 6.32339L0.503562 6.32294C0.486418 6.25463 0.538139 6.18751 0.609699 6.18751H3.64947H3.98799L4.11371 5.8732L4.9587 3.76072C5.75162 1.77865 7.64065 0.5 9.77522 0.5H16.2244C18.3595 0.5 20.248 1.77863 21.0404 3.76063L21.0404 3.7607L21.8855 5.8732ZM0.0186044 6.44466L0.323292 7.66341L0.609699 5.68751C0.213097 5.68751 -0.0778801 6.06024 0.0186044 6.44466ZM7.04767 4.59634L7.04765 4.5964L6.03558 7.12683L5.76133 7.81251H6.49982H19.4998H20.2383L19.9641 7.12683L18.952 4.5964L18.952 4.59634C18.5058 3.48129 17.4257 2.75 16.2244 2.75H9.77522C8.57395 2.75 7.49382 3.48129 7.04767 4.59634ZM2.74982 11.3699C2.74982 11.97 2.9527 12.5087 3.3437 12.8985C3.73456 13.2881 4.27417 13.4899 4.87482 13.4899C4.97209 13.4899 5.08249 13.492 5.20135 13.4944C5.61101 13.5024 6.12123 13.5124 6.54115 13.4426C6.81911 13.3964 7.13065 13.3065 7.38033 13.1074C7.65568 12.8878 7.81233 12.5698 7.81233 12.1799C7.81233 11.8199 7.6803 11.4607 7.50533 11.1468C7.32692 10.8266 7.08348 10.5168 6.8122 10.2464C6.5409 9.97592 6.23017 9.73333 5.90925 9.5556C5.59444 9.38125 5.23481 9.25001 4.87482 9.25001C4.27417 9.25001 3.73456 9.45175 3.3437 9.84139C2.9527 10.2312 2.74982 10.7699 2.74982 11.3699ZM18.1873 12.1799C18.1873 12.5698 18.344 12.8878 18.6193 13.1074C18.869 13.3065 19.1806 13.3964 19.4585 13.4426C19.8784 13.5124 20.3887 13.5024 20.7983 13.4944C20.9172 13.492 21.0276 13.4899 21.1248 13.4899C21.7255 13.4899 22.2651 13.2881 22.656 12.8985C23.047 12.5087 23.2498 11.97 23.2498 11.3699C23.2498 10.7699 23.047 10.2312 22.656 9.84139C22.2651 9.45175 21.7255 9.25001 21.1248 9.25001C20.7649 9.25001 20.4052 9.38125 20.0904 9.5556C19.7695 9.73333 19.4588 9.97592 19.1875 10.2464C18.9162 10.5168 18.6727 10.8266 18.4943 11.1468C18.3194 11.4607 18.1873 11.8199 18.1873 12.1799Z" fill="#219EBC" stroke="#023047"/>
</svg>
