<svg width="51" height="51" viewBox="0 0 51 51" fill="none" xmlns="http://www.w3.org/2000/svg">
<circle cx="25.5" cy="25.5" r="25.5" fill="#023047" fill-opacity="0.51"/>
<path d="M17.39 37L22.97 26.89L17.75 17.38H21.62L23.78 21.73C24.02 22.17 24.25 22.64 24.47 23.14C24.71 23.62 24.98 24.15 25.28 24.73H25.4C25.64 24.15 25.86 23.62 26.06 23.14C26.28 22.64 26.5 22.17 26.72 21.73L28.79 17.38H32.48L27.26 27.04L32.84 37H28.97L26.57 32.38C26.31 31.86 26.05 31.35 25.79 30.85C25.55 30.33 25.28 29.77 24.98 29.17H24.86C24.6 29.77 24.35 30.33 24.11 30.85C23.89 31.35 23.66 31.86 23.42 32.38L21.08 37H17.39Z" fill="white"/>
</svg>
